<mxfile host="app.diagrams.net" agent="Mozilla/5.0 (X11; Linux x86_64) AppleWebKit/537.36 (KHTML, like Gecko) Chrome/139.0.0.0 Safari/537.36" version="28.0.9">
  <diagram name="Page-1" id="rl183IzLasYeJEgvdUEy">
    <mxGraphModel dx="1426" dy="1899" grid="1" gridSize="10" guides="1" tooltips="1" connect="1" arrows="1" fold="1" page="1" pageScale="1" pageWidth="850" pageHeight="1100" math="0" shadow="0">
      <root>
        <mxCell id="0" />
        <mxCell id="1" parent="0" />
        <mxCell id="ZmDO_dCfgGo9Ul6yU1wn-15" style="edgeStyle=orthogonalEdgeStyle;rounded=0;orthogonalLoop=1;jettySize=auto;html=1;" edge="1" parent="1" source="ZmDO_dCfgGo9Ul6yU1wn-2" target="ZmDO_dCfgGo9Ul6yU1wn-4">
          <mxGeometry relative="1" as="geometry" />
        </mxCell>
        <mxCell id="ZmDO_dCfgGo9Ul6yU1wn-2" value="Windows 10&lt;div&gt;Send Events&lt;/div&gt;" style="text;html=1;align=center;verticalAlign=middle;resizable=0;points=[];autosize=1;strokeColor=none;fillColor=none;" vertex="1" parent="1">
          <mxGeometry x="10" y="650" width="90" height="40" as="geometry" />
        </mxCell>
        <mxCell id="ZmDO_dCfgGo9Ul6yU1wn-4" value="Wazuh Manager Trigger Alerts&lt;div&gt;&amp;amp; Perform response action&lt;/div&gt;" style="text;html=1;align=center;verticalAlign=middle;resizable=0;points=[];autosize=1;strokeColor=none;fillColor=none;" vertex="1" parent="1">
          <mxGeometry x="180" y="651" width="190" height="40" as="geometry" />
        </mxCell>
        <mxCell id="ZmDO_dCfgGo9Ul6yU1wn-18" style="edgeStyle=orthogonalEdgeStyle;rounded=0;orthogonalLoop=1;jettySize=auto;html=1;" edge="1" parent="1" source="ZmDO_dCfgGo9Ul6yU1wn-6" target="ZmDO_dCfgGo9Ul6yU1wn-7">
          <mxGeometry relative="1" as="geometry" />
        </mxCell>
        <mxCell id="ZmDO_dCfgGo9Ul6yU1wn-6" value="Shuffle Receive Wazuh Alerts &amp;amp; Send&lt;div&gt;Responsive Actions&lt;/div&gt;" style="text;html=1;align=center;verticalAlign=middle;resizable=0;points=[];autosize=1;strokeColor=none;fillColor=none;" vertex="1" parent="1">
          <mxGeometry x="425" y="651" width="220" height="40" as="geometry" />
        </mxCell>
        <mxCell id="ZmDO_dCfgGo9Ul6yU1wn-7" value="TheHive Create&lt;div&gt;alert in case management&lt;/div&gt;" style="text;html=1;align=center;verticalAlign=middle;resizable=0;points=[];autosize=1;strokeColor=none;fillColor=none;" vertex="1" parent="1">
          <mxGeometry x="475" y="790" width="160" height="40" as="geometry" />
        </mxCell>
        <mxCell id="ZmDO_dCfgGo9Ul6yU1wn-8" value="Email&lt;div&gt;Send email &amp;amp; responsive actions&lt;/div&gt;" style="text;html=1;align=center;verticalAlign=middle;resizable=0;points=[];autosize=1;strokeColor=none;fillColor=none;" vertex="1" parent="1">
          <mxGeometry x="690" y="640" width="200" height="40" as="geometry" />
        </mxCell>
        <mxCell id="ZmDO_dCfgGo9Ul6yU1wn-9" value="OSINT&lt;div&gt;Enrich IOCS&lt;/div&gt;" style="text;html=1;align=center;verticalAlign=middle;resizable=0;points=[];autosize=1;strokeColor=none;fillColor=none;" vertex="1" parent="1">
          <mxGeometry x="510" y="490" width="90" height="40" as="geometry" />
        </mxCell>
        <mxCell id="ZmDO_dCfgGo9Ul6yU1wn-12" style="edgeStyle=orthogonalEdgeStyle;rounded=0;orthogonalLoop=1;jettySize=auto;html=1;entryX=0.411;entryY=1.075;entryDx=0;entryDy=0;entryPerimeter=0;" edge="1" parent="1" source="ZmDO_dCfgGo9Ul6yU1wn-6" target="ZmDO_dCfgGo9Ul6yU1wn-9">
          <mxGeometry relative="1" as="geometry" />
        </mxCell>
        <mxCell id="ZmDO_dCfgGo9Ul6yU1wn-16" style="edgeStyle=orthogonalEdgeStyle;rounded=0;orthogonalLoop=1;jettySize=auto;html=1;entryX=0.002;entryY=0.425;entryDx=0;entryDy=0;entryPerimeter=0;" edge="1" parent="1" source="ZmDO_dCfgGo9Ul6yU1wn-4" target="ZmDO_dCfgGo9Ul6yU1wn-6">
          <mxGeometry relative="1" as="geometry" />
        </mxCell>
        <mxCell id="ZmDO_dCfgGo9Ul6yU1wn-17" style="edgeStyle=orthogonalEdgeStyle;rounded=0;orthogonalLoop=1;jettySize=auto;html=1;entryX=0.013;entryY=0.65;entryDx=0;entryDy=0;entryPerimeter=0;" edge="1" parent="1" source="ZmDO_dCfgGo9Ul6yU1wn-6" target="ZmDO_dCfgGo9Ul6yU1wn-8">
          <mxGeometry relative="1" as="geometry" />
        </mxCell>
        <mxCell id="ZmDO_dCfgGo9Ul6yU1wn-27" style="edgeStyle=orthogonalEdgeStyle;rounded=0;orthogonalLoop=1;jettySize=auto;html=1;entryX=0.5;entryY=1;entryDx=0;entryDy=0;" edge="1" parent="1" source="ZmDO_dCfgGo9Ul6yU1wn-25">
          <mxGeometry relative="1" as="geometry">
            <mxPoint x="280" y="172" as="targetPoint" />
          </mxGeometry>
        </mxCell>
        <mxCell id="ZmDO_dCfgGo9Ul6yU1wn-35" style="edgeStyle=orthogonalEdgeStyle;rounded=0;orthogonalLoop=1;jettySize=auto;html=1;" edge="1" parent="1" source="ZmDO_dCfgGo9Ul6yU1wn-32" target="ZmDO_dCfgGo9Ul6yU1wn-34">
          <mxGeometry relative="1" as="geometry" />
        </mxCell>
        <mxCell id="ZmDO_dCfgGo9Ul6yU1wn-40" style="edgeStyle=orthogonalEdgeStyle;rounded=0;orthogonalLoop=1;jettySize=auto;html=1;entryX=0.5;entryY=1;entryDx=0;entryDy=0;" edge="1" parent="1" source="ZmDO_dCfgGo9Ul6yU1wn-32" target="ZmDO_dCfgGo9Ul6yU1wn-33">
          <mxGeometry relative="1" as="geometry" />
        </mxCell>
        <mxCell id="ZmDO_dCfgGo9Ul6yU1wn-32" value="Windows 10 Client&#39;&lt;div&gt;Wazuh Agent&lt;/div&gt;" style="verticalLabelPosition=bottom;html=1;verticalAlign=top;align=center;strokeColor=none;fillColor=#00BEF2;shape=mxgraph.azure.computer;pointerEvents=1;" vertex="1" parent="1">
          <mxGeometry x="340" y="40" width="122.22" height="110" as="geometry" />
        </mxCell>
        <mxCell id="ZmDO_dCfgGo9Ul6yU1wn-46" style="edgeStyle=orthogonalEdgeStyle;rounded=0;orthogonalLoop=1;jettySize=auto;html=1;entryX=0;entryY=0.5;entryDx=0;entryDy=0;" edge="1" parent="1" source="ZmDO_dCfgGo9Ul6yU1wn-33" target="ZmDO_dCfgGo9Ul6yU1wn-38">
          <mxGeometry relative="1" as="geometry" />
        </mxCell>
        <mxCell id="ZmDO_dCfgGo9Ul6yU1wn-54" value="send response action" style="edgeLabel;html=1;align=center;verticalAlign=middle;resizable=0;points=[];" vertex="1" connectable="0" parent="ZmDO_dCfgGo9Ul6yU1wn-46">
          <mxGeometry x="0.3108" y="-4" relative="1" as="geometry">
            <mxPoint as="offset" />
          </mxGeometry>
        </mxCell>
        <mxCell id="ZmDO_dCfgGo9Ul6yU1wn-33" value="wazuh manager" style="image;aspect=fixed;perimeter=ellipsePerimeter;html=1;align=center;shadow=0;dashed=0;spacingTop=3;image=img/lib/active_directory/internet_cloud.svg;" vertex="1" parent="1">
          <mxGeometry x="70" y="-390" width="50" height="31.5" as="geometry" />
        </mxCell>
        <mxCell id="ZmDO_dCfgGo9Ul6yU1wn-41" style="edgeStyle=orthogonalEdgeStyle;rounded=0;orthogonalLoop=1;jettySize=auto;html=1;entryX=0.5;entryY=1;entryDx=0;entryDy=0;" edge="1" parent="1" source="ZmDO_dCfgGo9Ul6yU1wn-34" target="ZmDO_dCfgGo9Ul6yU1wn-36">
          <mxGeometry relative="1" as="geometry">
            <mxPoint x="380" y="-340" as="targetPoint" />
          </mxGeometry>
        </mxCell>
        <mxCell id="ZmDO_dCfgGo9Ul6yU1wn-34" value="Router" style="image;aspect=fixed;html=1;points=[];align=center;fontSize=12;image=img/lib/azure2/networking/Virtual_Router.svg;" vertex="1" parent="1">
          <mxGeometry x="380" y="-190" width="68" height="68" as="geometry" />
        </mxCell>
        <mxCell id="ZmDO_dCfgGo9Ul6yU1wn-42" style="edgeStyle=orthogonalEdgeStyle;rounded=0;orthogonalLoop=1;jettySize=auto;html=1;entryX=1;entryY=0.5;entryDx=0;entryDy=0;" edge="1" parent="1" source="ZmDO_dCfgGo9Ul6yU1wn-36" target="ZmDO_dCfgGo9Ul6yU1wn-33">
          <mxGeometry relative="1" as="geometry" />
        </mxCell>
        <mxCell id="ZmDO_dCfgGo9Ul6yU1wn-43" style="edgeStyle=elbowEdgeStyle;rounded=0;orthogonalLoop=1;jettySize=auto;html=1;entryX=0.5;entryY=1;entryDx=0;entryDy=0;" edge="1" parent="1" source="ZmDO_dCfgGo9Ul6yU1wn-36" target="ZmDO_dCfgGo9Ul6yU1wn-38">
          <mxGeometry relative="1" as="geometry">
            <mxPoint x="360" y="-550" as="targetPoint" />
          </mxGeometry>
        </mxCell>
        <mxCell id="ZmDO_dCfgGo9Ul6yU1wn-47" style="edgeStyle=orthogonalEdgeStyle;rounded=0;orthogonalLoop=1;jettySize=auto;html=1;entryX=0;entryY=0.5;entryDx=0;entryDy=0;" edge="1" parent="1" source="ZmDO_dCfgGo9Ul6yU1wn-36" target="ZmDO_dCfgGo9Ul6yU1wn-37">
          <mxGeometry relative="1" as="geometry" />
        </mxCell>
        <mxCell id="ZmDO_dCfgGo9Ul6yU1wn-36" value="internet" style="image;aspect=fixed;perimeter=ellipsePerimeter;html=1;align=center;shadow=0;dashed=0;spacingTop=3;image=img/lib/active_directory/internet_cloud.svg;" vertex="1" parent="1">
          <mxGeometry x="350" y="-390" width="50" height="31.5" as="geometry" />
        </mxCell>
        <mxCell id="ZmDO_dCfgGo9Ul6yU1wn-49" style="edgeStyle=orthogonalEdgeStyle;rounded=0;orthogonalLoop=1;jettySize=auto;html=1;exitX=1;exitY=0.5;exitDx=0;exitDy=0;" edge="1" parent="1" source="ZmDO_dCfgGo9Ul6yU1wn-37">
          <mxGeometry relative="1" as="geometry">
            <mxPoint x="740" y="-374" as="targetPoint" />
          </mxGeometry>
        </mxCell>
        <mxCell id="ZmDO_dCfgGo9Ul6yU1wn-50" style="edgeStyle=isometricEdgeStyle;rounded=0;orthogonalLoop=1;jettySize=auto;html=1;entryX=1;entryY=0.5;entryDx=0;entryDy=0;elbow=vertical;shape=link;" edge="1" parent="1" source="ZmDO_dCfgGo9Ul6yU1wn-37" target="ZmDO_dCfgGo9Ul6yU1wn-38">
          <mxGeometry relative="1" as="geometry" />
        </mxCell>
        <mxCell id="ZmDO_dCfgGo9Ul6yU1wn-53" value="send alerts" style="edgeLabel;html=1;align=center;verticalAlign=middle;resizable=0;points=[];" vertex="1" connectable="0" parent="ZmDO_dCfgGo9Ul6yU1wn-50">
          <mxGeometry x="0.6072" y="2" relative="1" as="geometry">
            <mxPoint as="offset" />
          </mxGeometry>
        </mxCell>
        <mxCell id="ZmDO_dCfgGo9Ul6yU1wn-37" value="TheHive" style="image;aspect=fixed;perimeter=ellipsePerimeter;html=1;align=center;shadow=0;dashed=0;spacingTop=3;image=img/lib/active_directory/internet_cloud.svg;" vertex="1" parent="1">
          <mxGeometry x="680" y="-390" width="50" height="31.5" as="geometry" />
        </mxCell>
        <mxCell id="ZmDO_dCfgGo9Ul6yU1wn-45" style="rounded=0;orthogonalLoop=1;jettySize=auto;html=1;entryX=1;entryY=0.5;entryDx=0;entryDy=0;shape=link;elbow=vertical;" edge="1" parent="1" source="ZmDO_dCfgGo9Ul6yU1wn-38" target="ZmDO_dCfgGo9Ul6yU1wn-36">
          <mxGeometry relative="1" as="geometry" />
        </mxCell>
        <mxCell id="ZmDO_dCfgGo9Ul6yU1wn-52" value="enrich" style="edgeLabel;html=1;align=center;verticalAlign=middle;resizable=0;points=[];" vertex="1" connectable="0" parent="ZmDO_dCfgGo9Ul6yU1wn-45">
          <mxGeometry x="-0.094" y="-2" relative="1" as="geometry">
            <mxPoint as="offset" />
          </mxGeometry>
        </mxCell>
        <mxCell id="ZmDO_dCfgGo9Ul6yU1wn-38" value="Shuffle" style="image;aspect=fixed;perimeter=ellipsePerimeter;html=1;align=center;shadow=0;dashed=0;spacingTop=3;image=img/lib/active_directory/internet_cloud.svg;" vertex="1" parent="1">
          <mxGeometry x="330" y="-700" width="50" height="31.5" as="geometry" />
        </mxCell>
        <mxCell id="ZmDO_dCfgGo9Ul6yU1wn-39" value="SOC Analyst" style="verticalLabelPosition=bottom;html=1;verticalAlign=top;align=center;strokeColor=none;fillColor=#00BEF2;shape=mxgraph.azure.computer;pointerEvents=1;" vertex="1" parent="1">
          <mxGeometry x="680" y="-160" width="122.22" height="110" as="geometry" />
        </mxCell>
      </root>
    </mxGraphModel>
  </diagram>
</mxfile>
